<?xml version="1.0" encoding="UTF-8" standalone="no"?>
<!-- Created with Inkscape (http://www.inkscape.org/) -->

<svg
   xmlns:dc="http://purl.org/dc/elements/1.1/"
   xmlns:cc="http://creativecommons.org/ns#"
   xmlns:rdf="http://www.w3.org/1999/02/22-rdf-syntax-ns#"
   xmlns:svg="http://www.w3.org/2000/svg"
   xmlns="http://www.w3.org/2000/svg"
   xmlns:sodipodi="http://sodipodi.sourceforge.net/DTD/sodipodi-0.dtd"
   xmlns:inkscape="http://www.inkscape.org/namespaces/inkscape"
   width="73.797844mm"
   height="100.40726mm"
   viewBox="0 0 73.797844 100.40726"
   version="1.1"
   id="svg4074"
   inkscape:version="0.92.4 (5da689c313, 2019-01-14)"
   sodipodi:docname="choinka.svg">
  <defs
     id="defs4068" />
  <sodipodi:namedview
     id="base"
     pagecolor="#ffffff"
     bordercolor="#666666"
     borderopacity="1.0"
     inkscape:pageopacity="0.0"
     inkscape:pageshadow="2"
     inkscape:zoom="2.8"
     inkscape:cx="158.36289"
     inkscape:cy="190.76028"
     inkscape:document-units="mm"
     inkscape:current-layer="layer1"
     showgrid="false"
     inkscape:window-width="1274"
     inkscape:window-height="1368"
     inkscape:window-x="-7"
     inkscape:window-y="0"
     inkscape:window-maximized="0" />
  <metadata
     id="metadata4071">
    <rdf:RDF>
      <cc:Work
         rdf:about="">
        <dc:format>image/svg+xml</dc:format>
        <dc:type
           rdf:resource="http://purl.org/dc/dcmitype/StillImage" />
        <dc:title></dc:title>
      </cc:Work>
    </rdf:RDF>
  </metadata>
  <g
     inkscape:label="Layer 1"
     inkscape:groupmode="layer"
     id="layer1"
     transform="translate(-57.595123,-79.730894)">
    <g
       id="g4051"
       inkscape:export-xdpi="96"
       inkscape:export-ydpi="96"
       transform="translate(364.74703,87.029019)">
      <polygon
         style="fill:#39b28a"
         points="83.704,397 362.625,397 295.495,283 150.834,283 "
         id="polygon3715-4"
         transform="matrix(0.26458333,0,0,0.26458333,-329.29859,-23.04295)" />
      <polyline
         style="fill:#2a936d"
         points="317.239,319.58 295.495,283 151,283   "
         id="polyline3717-6"
         transform="matrix(0.26458333,0,0,0.26458333,-329.29859,-23.04295)" />
      <polygon
         style="fill:#39b28a"
         points="295.495,283 328.588,283 270.912,186 237.82,186 208.51,186 175.417,186 117.741,283 150.834,283 "
         id="polygon3719-0"
         transform="matrix(0.26458333,0,0,0.26458333,-329.29859,-23.04295)" />
      <polyline
         style="fill:#2a936d"
         points="289.306,216.92 270.912,186 237.82,186 208.51,186 175,186   "
         id="polyline3721-6"
         transform="matrix(0.26458333,0,0,0.26458333,-329.29859,-23.04295)" />
      <polygon
         style="fill:#39b28a"
         points="223.165,59.508 148.47,186 175.417,186 208.51,186 237.82,186 270.912,186 297.859,186 "
         id="polygon3723-4"
         transform="matrix(0.26458333,0,0,0.26458333,-329.29859,-23.04295)" />
      <rect
         style="fill:#846f5e;stroke-width:0.26458332"
         x="-277.96942"
         y="81.996635"
         width="14.022917"
         height="11.1125"
         id="rect3727-9" />
    </g>
  </g>
</svg>
